<mxfile host="app.diagrams.net" modified="2024-05-16T14:53:07.954Z" agent="Mozilla/5.0 (Windows NT 10.0; Win64; x64) AppleWebKit/537.36 (KHTML, like Gecko) Chrome/122.0.0.0 YaBrowser/24.4.0.0 Safari/537.36" etag="ENH4fYhtxkmt0vBNRqrO" version="24.4.1" type="device">
  <diagram name="Page-1" id="e56a1550-8fbb-45ad-956c-1786394a9013">
    <mxGraphModel dx="1311" dy="719" grid="1" gridSize="10" guides="1" tooltips="1" connect="1" arrows="1" fold="1" page="1" pageScale="1" pageWidth="1100" pageHeight="850" background="none" math="0" shadow="0">
      <root>
        <mxCell id="0" />
        <mxCell id="1" parent="0" />
        <mxCell id="2j-3eba4BbPZ_uasE9CK-6" value="chat_all_all" style="swimlane;html=1;fontStyle=0;childLayout=stackLayout;horizontal=1;startSize=26;fillColor=#dae8fc;horizontalStack=0;resizeParent=1;resizeLast=0;collapsible=1;marginBottom=0;swimlaneFillColor=#ffffff;align=center;rounded=0;shadow=0;comic=0;labelBackgroundColor=none;strokeWidth=1;fontFamily=Verdana;fontSize=14;strokeColor=#6c8ebf;" parent="1" vertex="1">
          <mxGeometry x="570" y="160" width="160" height="164" as="geometry">
            <mxRectangle x="320" y="140" width="130" height="30" as="alternateBounds" />
          </mxGeometry>
        </mxCell>
        <mxCell id="MPP8vrw-vK4mRT0RnLA--16" value="id_chat" style="shape=partialRectangle;top=0;left=0;right=0;bottom=1;html=1;align=center;verticalAlign=middle;fillColor=none;spacingLeft=34;spacingRight=4;whiteSpace=wrap;overflow=hidden;rotatable=0;points=[[0,0.5],[1,0.5]];portConstraint=eastwest;dropTarget=0;fontStyle=5;" parent="2j-3eba4BbPZ_uasE9CK-6" vertex="1">
          <mxGeometry y="26" width="160" height="30" as="geometry" />
        </mxCell>
        <mxCell id="MPP8vrw-vK4mRT0RnLA--17" value="PK" style="shape=partialRectangle;fontStyle=1;top=0;left=0;bottom=0;html=1;fillColor=none;align=left;verticalAlign=middle;spacingLeft=4;spacingRight=4;whiteSpace=wrap;overflow=hidden;rotatable=0;points=[];portConstraint=eastwest;part=1;" parent="MPP8vrw-vK4mRT0RnLA--16" vertex="1" connectable="0">
          <mxGeometry width="30" height="30" as="geometry" />
        </mxCell>
        <mxCell id="2j-3eba4BbPZ_uasE9CK-11" value="name" style="shape=partialRectangle;top=0;left=0;right=0;bottom=0;html=1;align=center;verticalAlign=top;spacingLeft=4;spacingRight=4;whiteSpace=wrap;overflow=hidden;rotatable=0;points=[[0,0.5],[1,0.5]];portConstraint=eastwest;dropTarget=0;perimeterSpacing=0;fillColor=none;strokeColor=default;" parent="2j-3eba4BbPZ_uasE9CK-6" vertex="1">
          <mxGeometry y="56" width="160" height="26" as="geometry" />
        </mxCell>
        <mxCell id="MPP8vrw-vK4mRT0RnLA--8" value="&lt;span style=&quot;font-weight: 400;&quot;&gt;creator&lt;/span&gt;" style="shape=partialRectangle;top=1;left=0;right=0;bottom=1;html=1;align=center;verticalAlign=middle;fillColor=none;spacingLeft=34;spacingRight=4;whiteSpace=wrap;overflow=hidden;rotatable=0;points=[[0,0.5],[1,0.5]];portConstraint=eastwest;dropTarget=0;fontStyle=1;" parent="2j-3eba4BbPZ_uasE9CK-6" vertex="1">
          <mxGeometry y="82" width="160" height="30" as="geometry" />
        </mxCell>
        <mxCell id="MPP8vrw-vK4mRT0RnLA--9" value="FK" style="shape=partialRectangle;fontStyle=1;top=0;left=0;bottom=0;html=1;fillColor=none;align=left;verticalAlign=middle;spacingLeft=4;spacingRight=4;whiteSpace=wrap;overflow=hidden;rotatable=0;points=[];portConstraint=eastwest;part=1;" parent="MPP8vrw-vK4mRT0RnLA--8" vertex="1" connectable="0">
          <mxGeometry width="30" height="30" as="geometry" />
        </mxCell>
        <mxCell id="2j-3eba4BbPZ_uasE9CK-10" value="count_users" style="shape=partialRectangle;top=0;left=0;right=0;bottom=1;html=1;align=center;verticalAlign=top;fillColor=none;spacingLeft=4;spacingRight=4;whiteSpace=wrap;overflow=hidden;rotatable=0;points=[[0,0.5],[1,0.5]];portConstraint=eastwest;dropTarget=0;strokeColor=none;" parent="2j-3eba4BbPZ_uasE9CK-6" vertex="1">
          <mxGeometry y="112" width="160" height="26" as="geometry" />
        </mxCell>
        <mxCell id="OQdKJSCNZ-ZdT6Niwxlx-1" value="change_name" style="shape=partialRectangle;top=0;left=0;right=0;bottom=1;html=1;align=center;verticalAlign=top;fillColor=none;spacingLeft=4;spacingRight=4;whiteSpace=wrap;overflow=hidden;rotatable=0;points=[[0,0.5],[1,0.5]];portConstraint=eastwest;dropTarget=0;strokeColor=none;" vertex="1" parent="2j-3eba4BbPZ_uasE9CK-6">
          <mxGeometry y="138" width="160" height="26" as="geometry" />
        </mxCell>
        <mxCell id="2j-3eba4BbPZ_uasE9CK-16" value="contact" style="swimlane;html=1;fontStyle=0;childLayout=stackLayout;horizontal=1;startSize=26;fillColor=#dae8fc;horizontalStack=0;resizeParent=1;resizeLast=0;collapsible=1;marginBottom=0;swimlaneFillColor=#ffffff;align=center;rounded=0;shadow=0;comic=0;labelBackgroundColor=none;strokeWidth=1;fontFamily=Verdana;fontSize=14;strokeColor=#6c8ebf;" parent="1" vertex="1">
          <mxGeometry x="570" y="40" width="160" height="86" as="geometry">
            <mxRectangle x="320" y="140" width="130" height="30" as="alternateBounds" />
          </mxGeometry>
        </mxCell>
        <mxCell id="MPP8vrw-vK4mRT0RnLA--26" value="&lt;div&gt;id_user&lt;br&gt;&lt;/div&gt;" style="shape=partialRectangle;top=0;left=0;right=0;bottom=1;html=1;align=center;verticalAlign=middle;fillColor=none;spacingLeft=64;spacingRight=4;whiteSpace=wrap;overflow=hidden;rotatable=0;points=[[0,0.5],[1,0.5]];portConstraint=eastwest;dropTarget=0;fontStyle=5;" parent="2j-3eba4BbPZ_uasE9CK-16" vertex="1">
          <mxGeometry y="26" width="160" height="30" as="geometry" />
        </mxCell>
        <mxCell id="MPP8vrw-vK4mRT0RnLA--27" value="&lt;div style=&quot;text-align: right;&quot;&gt;&lt;span style=&quot;background-color: initial;&quot;&gt;PK,&amp;nbsp;&lt;/span&gt;&lt;span style=&quot;background-color: initial;&quot;&gt;FK1&lt;/span&gt;&lt;br&gt;&lt;/div&gt;" style="shape=partialRectangle;fontStyle=1;top=0;left=0;bottom=0;html=1;fillColor=none;align=left;verticalAlign=middle;spacingLeft=4;spacingRight=4;whiteSpace=wrap;overflow=hidden;rotatable=0;points=[];portConstraint=eastwest;part=1;" parent="MPP8vrw-vK4mRT0RnLA--26" vertex="1" connectable="0">
          <mxGeometry width="60" height="30" as="geometry" />
        </mxCell>
        <mxCell id="MPP8vrw-vK4mRT0RnLA--28" value="&lt;div&gt;id_contact&lt;br&gt;&lt;/div&gt;" style="shape=partialRectangle;top=0;left=0;right=0;bottom=0;html=1;align=center;verticalAlign=middle;fillColor=none;spacingLeft=64;spacingRight=4;whiteSpace=wrap;overflow=hidden;rotatable=0;points=[[0,0.5],[1,0.5]];portConstraint=eastwest;dropTarget=0;fontStyle=5;" parent="2j-3eba4BbPZ_uasE9CK-16" vertex="1">
          <mxGeometry y="56" width="160" height="30" as="geometry" />
        </mxCell>
        <mxCell id="MPP8vrw-vK4mRT0RnLA--29" value="&lt;div style=&quot;text-align: right;&quot;&gt;&lt;span style=&quot;background-color: initial;&quot;&gt;PK,&amp;nbsp;&lt;/span&gt;&lt;span style=&quot;background-color: initial;&quot;&gt;FK2&lt;/span&gt;&lt;br&gt;&lt;/div&gt;" style="shape=partialRectangle;fontStyle=1;top=0;left=0;bottom=0;html=1;fillColor=none;align=left;verticalAlign=middle;spacingLeft=4;spacingRight=4;whiteSpace=wrap;overflow=hidden;rotatable=0;points=[];portConstraint=eastwest;part=1;" parent="MPP8vrw-vK4mRT0RnLA--28" vertex="1" connectable="0">
          <mxGeometry width="60" height="30" as="geometry" />
        </mxCell>
        <mxCell id="bewlBs93pRS9PAjgElBZ-32" value="Chat" style="swimlane;html=1;fontStyle=0;childLayout=stackLayout;horizontal=1;startSize=26;fillColor=#d5e8d4;horizontalStack=0;resizeParent=1;resizeLast=0;collapsible=1;marginBottom=0;swimlaneFillColor=#ffffff;align=center;rounded=0;shadow=0;comic=0;labelBackgroundColor=none;strokeWidth=1;fontFamily=Verdana;fontSize=14;strokeColor=#82b366;" parent="1" vertex="1">
          <mxGeometry x="570" y="410" width="160" height="86" as="geometry">
            <mxRectangle x="320" y="140" width="130" height="30" as="alternateBounds" />
          </mxGeometry>
        </mxCell>
        <mxCell id="MPP8vrw-vK4mRT0RnLA--20" value="&lt;div&gt;id_stroke&lt;br&gt;&lt;/div&gt;" style="shape=partialRectangle;top=0;left=0;right=0;bottom=1;html=1;align=center;verticalAlign=middle;fillColor=none;spacingLeft=64;spacingRight=4;whiteSpace=wrap;overflow=hidden;rotatable=0;points=[[0,0.5],[1,0.5]];portConstraint=eastwest;dropTarget=0;fontStyle=5;" parent="bewlBs93pRS9PAjgElBZ-32" vertex="1">
          <mxGeometry y="26" width="160" height="30" as="geometry" />
        </mxCell>
        <mxCell id="MPP8vrw-vK4mRT0RnLA--21" value="&lt;div style=&quot;text-align: right;&quot;&gt;&lt;span style=&quot;background-color: initial;&quot;&gt;PK,&amp;nbsp;&lt;/span&gt;&lt;span style=&quot;background-color: initial;&quot;&gt;FK1&lt;/span&gt;&lt;br&gt;&lt;/div&gt;" style="shape=partialRectangle;fontStyle=1;top=0;left=0;bottom=0;html=1;fillColor=none;align=left;verticalAlign=middle;spacingLeft=4;spacingRight=4;whiteSpace=wrap;overflow=hidden;rotatable=0;points=[];portConstraint=eastwest;part=1;" parent="MPP8vrw-vK4mRT0RnLA--20" vertex="1" connectable="0">
          <mxGeometry width="60" height="30" as="geometry" />
        </mxCell>
        <mxCell id="MPP8vrw-vK4mRT0RnLA--40" value="&lt;span style=&quot;font-weight: normal;&quot;&gt;id_person_chat&lt;/span&gt;" style="shape=partialRectangle;top=0;left=0;right=0;bottom=0;html=1;align=center;verticalAlign=middle;fillColor=none;spacingLeft=34;spacingRight=4;whiteSpace=wrap;overflow=hidden;rotatable=0;points=[[0,0.5],[1,0.5]];portConstraint=eastwest;dropTarget=0;fontStyle=1;" parent="bewlBs93pRS9PAjgElBZ-32" vertex="1">
          <mxGeometry y="56" width="160" height="30" as="geometry" />
        </mxCell>
        <mxCell id="MPP8vrw-vK4mRT0RnLA--41" value="FK2" style="shape=partialRectangle;fontStyle=1;top=0;left=0;bottom=0;html=1;fillColor=none;align=left;verticalAlign=middle;spacingLeft=4;spacingRight=4;whiteSpace=wrap;overflow=hidden;rotatable=0;points=[];portConstraint=eastwest;part=1;" parent="MPP8vrw-vK4mRT0RnLA--40" vertex="1" connectable="0">
          <mxGeometry width="40" height="30" as="geometry" />
        </mxCell>
        <mxCell id="bewlBs93pRS9PAjgElBZ-37" value="message_sskp" style="swimlane;html=1;fontStyle=0;childLayout=stackLayout;horizontal=1;startSize=26;fillColor=#d5e8d4;horizontalStack=0;resizeParent=1;resizeLast=0;collapsible=1;marginBottom=0;swimlaneFillColor=#ffffff;align=center;rounded=0;shadow=0;comic=0;labelBackgroundColor=none;strokeWidth=1;fontFamily=Verdana;fontSize=14;strokeColor=#82b366;" parent="1" vertex="1">
          <mxGeometry x="250" y="410" width="160" height="160" as="geometry">
            <mxRectangle x="320" y="140" width="130" height="30" as="alternateBounds" />
          </mxGeometry>
        </mxCell>
        <mxCell id="MPP8vrw-vK4mRT0RnLA--12" value="id_stroke" style="shape=partialRectangle;top=0;left=0;right=0;bottom=1;html=1;align=center;verticalAlign=middle;fillColor=none;spacingLeft=34;spacingRight=4;whiteSpace=wrap;overflow=hidden;rotatable=0;points=[[0,0.5],[1,0.5]];portConstraint=eastwest;dropTarget=0;fontStyle=5;" parent="bewlBs93pRS9PAjgElBZ-37" vertex="1">
          <mxGeometry y="26" width="160" height="30" as="geometry" />
        </mxCell>
        <mxCell id="MPP8vrw-vK4mRT0RnLA--13" value="PK" style="shape=partialRectangle;fontStyle=1;top=0;left=0;bottom=0;html=1;fillColor=none;align=left;verticalAlign=middle;spacingLeft=4;spacingRight=4;whiteSpace=wrap;overflow=hidden;rotatable=0;points=[];portConstraint=eastwest;part=1;" parent="MPP8vrw-vK4mRT0RnLA--12" vertex="1" connectable="0">
          <mxGeometry width="30" height="30" as="geometry" />
        </mxCell>
        <mxCell id="MPP8vrw-vK4mRT0RnLA--14" value="&lt;span style=&quot;font-weight: 400;&quot;&gt;id_user&lt;/span&gt;" style="shape=partialRectangle;top=0;left=0;right=0;bottom=1;html=1;align=center;verticalAlign=middle;fillColor=none;spacingLeft=34;spacingRight=4;whiteSpace=wrap;overflow=hidden;rotatable=0;points=[[0,0.5],[1,0.5]];portConstraint=eastwest;dropTarget=0;fontStyle=1;" parent="bewlBs93pRS9PAjgElBZ-37" vertex="1">
          <mxGeometry y="56" width="160" height="30" as="geometry" />
        </mxCell>
        <mxCell id="MPP8vrw-vK4mRT0RnLA--15" value="FK" style="shape=partialRectangle;fontStyle=1;top=0;left=0;bottom=0;html=1;fillColor=none;align=left;verticalAlign=middle;spacingLeft=4;spacingRight=4;whiteSpace=wrap;overflow=hidden;rotatable=0;points=[];portConstraint=eastwest;part=1;" parent="MPP8vrw-vK4mRT0RnLA--14" vertex="1" connectable="0">
          <mxGeometry width="30" height="30" as="geometry" />
        </mxCell>
        <mxCell id="bewlBs93pRS9PAjgElBZ-40" value="&lt;div&gt;sms&lt;/div&gt;" style="shape=partialRectangle;top=0;left=0;right=0;bottom=1;html=1;align=center;verticalAlign=top;fillColor=none;spacingLeft=4;spacingRight=4;whiteSpace=wrap;overflow=hidden;rotatable=0;points=[[0,0.5],[1,0.5]];portConstraint=eastwest;dropTarget=0;strokeColor=none;" parent="bewlBs93pRS9PAjgElBZ-37" vertex="1">
          <mxGeometry y="86" width="160" height="26" as="geometry" />
        </mxCell>
        <mxCell id="bewlBs93pRS9PAjgElBZ-41" value="&lt;div&gt;type_sms&lt;/div&gt;" style="shape=partialRectangle;top=0;left=0;right=0;bottom=0;html=1;align=center;verticalAlign=top;spacingLeft=4;spacingRight=4;whiteSpace=wrap;overflow=hidden;rotatable=0;points=[[0,0.5],[1,0.5]];portConstraint=eastwest;dropTarget=0;perimeterSpacing=0;fillColor=none;strokeColor=default;" parent="bewlBs93pRS9PAjgElBZ-37" vertex="1">
          <mxGeometry y="112" width="160" height="26" as="geometry" />
        </mxCell>
        <mxCell id="bewlBs93pRS9PAjgElBZ-42" value="&lt;div&gt;time&lt;/div&gt;" style="shape=partialRectangle;top=0;left=0;right=0;bottom=1;html=1;align=center;verticalAlign=top;spacingLeft=4;spacingRight=4;whiteSpace=wrap;overflow=hidden;rotatable=0;points=[[0,0.5],[1,0.5]];portConstraint=eastwest;dropTarget=0;fillColor=none;strokeColor=none;" parent="bewlBs93pRS9PAjgElBZ-37" vertex="1">
          <mxGeometry y="138" width="160" height="22" as="geometry" />
        </mxCell>
        <mxCell id="bewlBs93pRS9PAjgElBZ-56" value="user" style="swimlane;html=1;fontStyle=0;childLayout=stackLayout;horizontal=1;startSize=26;fillColor=#f8cecc;horizontalStack=0;resizeParent=1;resizeLast=0;collapsible=1;marginBottom=0;swimlaneFillColor=#ffffff;align=center;rounded=0;shadow=0;comic=0;labelBackgroundColor=none;strokeWidth=1;fontFamily=Verdana;fontSize=14;strokeColor=#b85450;" parent="1" vertex="1">
          <mxGeometry x="250" y="70" width="160" height="160" as="geometry">
            <mxRectangle x="320" y="140" width="130" height="30" as="alternateBounds" />
          </mxGeometry>
        </mxCell>
        <mxCell id="MPP8vrw-vK4mRT0RnLA--10" value="id_user" style="shape=partialRectangle;top=0;left=0;right=0;bottom=1;html=1;align=center;verticalAlign=middle;fillColor=none;spacingLeft=34;spacingRight=4;whiteSpace=wrap;overflow=hidden;rotatable=0;points=[[0,0.5],[1,0.5]];portConstraint=eastwest;dropTarget=0;fontStyle=5;" parent="bewlBs93pRS9PAjgElBZ-56" vertex="1">
          <mxGeometry y="26" width="160" height="30" as="geometry" />
        </mxCell>
        <mxCell id="MPP8vrw-vK4mRT0RnLA--11" value="PK" style="shape=partialRectangle;fontStyle=1;top=0;left=0;bottom=0;html=1;fillColor=none;align=left;verticalAlign=middle;spacingLeft=4;spacingRight=4;whiteSpace=wrap;overflow=hidden;rotatable=0;points=[];portConstraint=eastwest;part=1;" parent="MPP8vrw-vK4mRT0RnLA--10" vertex="1" connectable="0">
          <mxGeometry width="30" height="30" as="geometry" />
        </mxCell>
        <mxCell id="WR7NSTM6mx1dkXXZvBNt-26" value="nickname" style="shape=partialRectangle;top=0;left=0;right=0;bottom=1;html=1;align=center;verticalAlign=top;fillColor=none;spacingLeft=4;spacingRight=4;whiteSpace=wrap;overflow=hidden;rotatable=0;points=[[0,0.5],[1,0.5]];portConstraint=eastwest;dropTarget=0;spacing=0;strokeColor=none;" parent="bewlBs93pRS9PAjgElBZ-56" vertex="1">
          <mxGeometry y="56" width="160" height="26" as="geometry" />
        </mxCell>
        <mxCell id="bewlBs93pRS9PAjgElBZ-58" value="&lt;div&gt;name&lt;/div&gt;" style="shape=partialRectangle;top=0;left=0;right=0;bottom=1;html=1;align=center;verticalAlign=top;fillColor=none;spacingLeft=4;spacingRight=4;whiteSpace=wrap;overflow=hidden;rotatable=0;points=[[0,0.5],[1,0.5]];portConstraint=eastwest;dropTarget=0;spacing=0;strokeColor=none;" parent="bewlBs93pRS9PAjgElBZ-56" vertex="1">
          <mxGeometry y="82" width="160" height="26" as="geometry" />
        </mxCell>
        <mxCell id="bewlBs93pRS9PAjgElBZ-59" value="mail" style="shape=partialRectangle;top=0;left=0;right=0;bottom=1;html=1;align=center;verticalAlign=top;fillColor=none;spacingLeft=4;spacingRight=4;whiteSpace=wrap;overflow=hidden;rotatable=0;points=[[0,0.5],[1,0.5]];portConstraint=eastwest;dropTarget=0;strokeColor=none;" parent="bewlBs93pRS9PAjgElBZ-56" vertex="1">
          <mxGeometry y="108" width="160" height="26" as="geometry" />
        </mxCell>
        <mxCell id="bewlBs93pRS9PAjgElBZ-60" value="password" style="shape=partialRectangle;top=0;left=0;right=0;bottom=0;html=1;align=center;verticalAlign=top;spacingLeft=4;spacingRight=4;whiteSpace=wrap;overflow=hidden;rotatable=0;points=[[0,0.5],[1,0.5]];portConstraint=eastwest;dropTarget=0;perimeterSpacing=0;fillColor=none;strokeColor=default;" parent="bewlBs93pRS9PAjgElBZ-56" vertex="1">
          <mxGeometry y="134" width="160" height="26" as="geometry" />
        </mxCell>
        <mxCell id="bewlBs93pRS9PAjgElBZ-73" value="chat_all_for_one" style="swimlane;html=1;fontStyle=0;childLayout=stackLayout;horizontal=1;startSize=26;fillColor=#dae8fc;horizontalStack=0;resizeParent=1;resizeLast=0;collapsible=1;marginBottom=0;swimlaneFillColor=#ffffff;align=center;rounded=0;shadow=0;comic=0;labelBackgroundColor=none;strokeWidth=1;fontFamily=Verdana;fontSize=14;strokeColor=#6c8ebf;" parent="1" vertex="1">
          <mxGeometry x="250" y="280" width="160" height="112" as="geometry">
            <mxRectangle x="320" y="140" width="130" height="30" as="alternateBounds" />
          </mxGeometry>
        </mxCell>
        <mxCell id="MPP8vrw-vK4mRT0RnLA--22" value="&lt;div&gt;id_ch_c&lt;br&gt;&lt;/div&gt;" style="shape=partialRectangle;top=0;left=0;right=0;bottom=1;html=1;align=center;verticalAlign=middle;fillColor=none;spacingLeft=64;spacingRight=4;whiteSpace=wrap;overflow=hidden;rotatable=0;points=[[0,0.5],[1,0.5]];portConstraint=eastwest;dropTarget=0;fontStyle=5;" parent="bewlBs93pRS9PAjgElBZ-73" vertex="1">
          <mxGeometry y="26" width="160" height="30" as="geometry" />
        </mxCell>
        <mxCell id="MPP8vrw-vK4mRT0RnLA--23" value="&lt;div style=&quot;text-align: right;&quot;&gt;&lt;span style=&quot;background-color: initial;&quot;&gt;PK,&amp;nbsp;&lt;/span&gt;&lt;span style=&quot;background-color: initial;&quot;&gt;FK1&lt;/span&gt;&lt;br&gt;&lt;/div&gt;" style="shape=partialRectangle;fontStyle=1;top=0;left=0;bottom=0;html=1;fillColor=none;align=left;verticalAlign=middle;spacingLeft=4;spacingRight=4;whiteSpace=wrap;overflow=hidden;rotatable=0;points=[];portConstraint=eastwest;part=1;" parent="MPP8vrw-vK4mRT0RnLA--22" vertex="1" connectable="0">
          <mxGeometry width="60" height="30" as="geometry" />
        </mxCell>
        <mxCell id="MPP8vrw-vK4mRT0RnLA--24" value="&lt;div&gt;id_user_add&lt;br&gt;&lt;/div&gt;" style="shape=partialRectangle;top=0;left=0;right=0;bottom=1;html=1;align=center;verticalAlign=middle;fillColor=none;spacingLeft=64;spacingRight=4;whiteSpace=wrap;overflow=hidden;rotatable=0;points=[[0,0.5],[1,0.5]];portConstraint=eastwest;dropTarget=0;fontStyle=5;" parent="bewlBs93pRS9PAjgElBZ-73" vertex="1">
          <mxGeometry y="56" width="160" height="30" as="geometry" />
        </mxCell>
        <mxCell id="MPP8vrw-vK4mRT0RnLA--25" value="&lt;div style=&quot;text-align: right;&quot;&gt;&lt;span style=&quot;background-color: initial;&quot;&gt;PK,&amp;nbsp;&lt;/span&gt;&lt;span style=&quot;background-color: initial;&quot;&gt;FK2&lt;/span&gt;&lt;br&gt;&lt;/div&gt;" style="shape=partialRectangle;fontStyle=1;top=0;left=0;bottom=0;html=1;fillColor=none;align=left;verticalAlign=middle;spacingLeft=4;spacingRight=4;whiteSpace=wrap;overflow=hidden;rotatable=0;points=[];portConstraint=eastwest;part=1;" parent="MPP8vrw-vK4mRT0RnLA--24" vertex="1" connectable="0">
          <mxGeometry width="60" height="30" as="geometry" />
        </mxCell>
        <mxCell id="L_QDkiNyECLxNzuHbLp0-2" value="&lt;div&gt;&lt;div&gt;time_add&lt;/div&gt;&lt;/div&gt;" style="shape=partialRectangle;top=0;left=0;right=0;bottom=1;html=1;align=center;verticalAlign=top;fillColor=none;spacingLeft=4;spacingRight=4;whiteSpace=wrap;overflow=hidden;rotatable=0;points=[[0,0.5],[1,0.5]];portConstraint=eastwest;dropTarget=0;spacing=0;strokeColor=none;" parent="bewlBs93pRS9PAjgElBZ-73" vertex="1">
          <mxGeometry y="86" width="160" height="26" as="geometry" />
        </mxCell>
        <mxCell id="MPP8vrw-vK4mRT0RnLA--30" style="edgeStyle=orthogonalEdgeStyle;rounded=0;orthogonalLoop=1;jettySize=auto;html=1;exitX=0;exitY=0.5;exitDx=0;exitDy=0;entryX=0;entryY=0.5;entryDx=0;entryDy=0;" parent="1" source="MPP8vrw-vK4mRT0RnLA--10" target="MPP8vrw-vK4mRT0RnLA--24" edge="1">
          <mxGeometry relative="1" as="geometry" />
        </mxCell>
        <mxCell id="MPP8vrw-vK4mRT0RnLA--31" style="edgeStyle=orthogonalEdgeStyle;rounded=0;orthogonalLoop=1;jettySize=auto;html=1;exitX=0;exitY=0.227;exitDx=0;exitDy=0;entryX=0;entryY=0.5;entryDx=0;entryDy=0;exitPerimeter=0;" parent="1" source="MPP8vrw-vK4mRT0RnLA--10" target="MPP8vrw-vK4mRT0RnLA--14" edge="1">
          <mxGeometry relative="1" as="geometry">
            <mxPoint x="180" y="90" as="sourcePoint" />
            <mxPoint x="180" y="350" as="targetPoint" />
            <Array as="points">
              <mxPoint x="190" y="103" />
              <mxPoint x="190" y="481" />
            </Array>
          </mxGeometry>
        </mxCell>
        <mxCell id="MPP8vrw-vK4mRT0RnLA--32" style="edgeStyle=orthogonalEdgeStyle;rounded=0;orthogonalLoop=1;jettySize=auto;html=1;exitX=1.003;exitY=0.817;exitDx=0;exitDy=0;entryX=0;entryY=0.5;entryDx=0;entryDy=0;exitPerimeter=0;" parent="1" source="MPP8vrw-vK4mRT0RnLA--10" target="MPP8vrw-vK4mRT0RnLA--8" edge="1">
          <mxGeometry relative="1" as="geometry">
            <mxPoint x="470" y="110" as="sourcePoint" />
            <mxPoint x="470" y="370" as="targetPoint" />
            <Array as="points">
              <mxPoint x="460" y="121" />
              <mxPoint x="460" y="257" />
            </Array>
          </mxGeometry>
        </mxCell>
        <mxCell id="MPP8vrw-vK4mRT0RnLA--33" style="edgeStyle=orthogonalEdgeStyle;rounded=0;orthogonalLoop=1;jettySize=auto;html=1;exitX=1;exitY=0.5;exitDx=0;exitDy=0;entryX=0;entryY=0.5;entryDx=0;entryDy=0;" parent="1" source="MPP8vrw-vK4mRT0RnLA--10" target="MPP8vrw-vK4mRT0RnLA--28" edge="1">
          <mxGeometry relative="1" as="geometry">
            <mxPoint x="480" y="120" as="sourcePoint" />
            <mxPoint x="480" y="380" as="targetPoint" />
            <Array as="points">
              <mxPoint x="530" y="111" />
              <mxPoint x="530" y="111" />
            </Array>
          </mxGeometry>
        </mxCell>
        <mxCell id="MPP8vrw-vK4mRT0RnLA--34" style="edgeStyle=orthogonalEdgeStyle;rounded=0;orthogonalLoop=1;jettySize=auto;html=1;exitX=1.002;exitY=0.237;exitDx=0;exitDy=0;exitPerimeter=0;entryX=0;entryY=0.5;entryDx=0;entryDy=0;" parent="1" source="MPP8vrw-vK4mRT0RnLA--10" target="MPP8vrw-vK4mRT0RnLA--26" edge="1">
          <mxGeometry relative="1" as="geometry">
            <mxPoint x="490" y="130" as="sourcePoint" />
            <mxPoint x="550" y="220" as="targetPoint" />
            <Array as="points">
              <mxPoint x="500" y="103" />
              <mxPoint x="500" y="81" />
            </Array>
          </mxGeometry>
        </mxCell>
        <mxCell id="MPP8vrw-vK4mRT0RnLA--37" style="edgeStyle=orthogonalEdgeStyle;rounded=0;orthogonalLoop=1;jettySize=auto;html=1;exitX=0.998;exitY=0.707;exitDx=0;exitDy=0;exitPerimeter=0;" parent="1" source="MPP8vrw-vK4mRT0RnLA--16" edge="1">
          <mxGeometry relative="1" as="geometry">
            <mxPoint x="770" y="310" as="sourcePoint" />
            <mxPoint x="410" y="350" as="targetPoint" />
            <Array as="points">
              <mxPoint x="760" y="207" />
              <mxPoint x="760" y="350" />
              <mxPoint x="410" y="350" />
            </Array>
          </mxGeometry>
        </mxCell>
        <mxCell id="MPP8vrw-vK4mRT0RnLA--42" style="edgeStyle=orthogonalEdgeStyle;rounded=0;orthogonalLoop=1;jettySize=auto;html=1;exitX=1;exitY=0.5;exitDx=0;exitDy=0;" parent="1" source="MPP8vrw-vK4mRT0RnLA--12" target="MPP8vrw-vK4mRT0RnLA--20" edge="1">
          <mxGeometry relative="1" as="geometry" />
        </mxCell>
        <mxCell id="OQdKJSCNZ-ZdT6Niwxlx-2" style="edgeStyle=orthogonalEdgeStyle;rounded=0;orthogonalLoop=1;jettySize=auto;html=1;entryX=1;entryY=0.5;entryDx=0;entryDy=0;" edge="1" parent="1" target="MPP8vrw-vK4mRT0RnLA--40">
          <mxGeometry relative="1" as="geometry">
            <mxPoint x="730" y="190" as="sourcePoint" />
            <mxPoint x="420" y="361" as="targetPoint" />
            <Array as="points">
              <mxPoint x="770" y="190" />
              <mxPoint x="770" y="481" />
            </Array>
          </mxGeometry>
        </mxCell>
      </root>
    </mxGraphModel>
  </diagram>
</mxfile>
